<svg xmlns="http://www.w3.org/2000/svg" width="42.546" height="42.545" viewBox="0 0 42.546 42.545"><defs><style>.a{fill:#fff;}</style></defs><path class="a" d="M29.25,0H13.3A13.3,13.3,0,0,0,0,13.3V29.25a13.3,13.3,0,0,0,13.3,13.3H29.25a13.3,13.3,0,0,0,13.3-13.3V13.3A13.3,13.3,0,0,0,29.25,0Zm9.307,29.25a9.317,9.317,0,0,1-9.307,9.307H13.3A9.317,9.317,0,0,1,3.989,29.25V13.3A9.317,9.317,0,0,1,13.3,3.989H29.25A9.317,9.317,0,0,1,38.557,13.3Z"/><path class="a" d="M138.636,128a10.636,10.636,0,1,0,10.636,10.636A10.637,10.637,0,0,0,138.636,128Zm0,17.284a6.648,6.648,0,1,1,6.648-6.648A6.657,6.657,0,0,1,138.636,145.284Z" transform="translate(-117.364 -117.364)"/><circle class="a" cx="1.417" cy="1.417" r="1.417" transform="translate(31.29 8.421)"/></svg>