<svg xmlns="http://www.w3.org/2000/svg" width="55.321" height="38.033" viewBox="0 0 55.321 38.033"><defs><style>.a{fill:#fff;}</style></defs><path class="a" d="M52.97,83.665c-1.5-2.669-3.129-3.16-6.445-3.347C43.212,80.093,34.883,80,27.667,80S12.1,80.093,8.8,80.315c-3.309.19-4.941.678-6.455,3.35C.8,86.331,0,90.922,0,99.006v.028c0,8.049.8,12.675,2.341,15.313,1.514,2.669,3.143,3.153,6.452,3.378,3.312.194,11.645.308,18.875.308s15.545-.114,18.861-.3c3.316-.225,4.944-.709,6.445-3.378,1.559-2.638,2.348-7.264,2.348-15.313V99.01C55.321,90.922,54.532,86.331,52.97,83.665ZM20.745,109.389V88.644L38.033,99.016Z" transform="translate(0 -80)"/></svg>